{
  "accessors": [
    {
      "bufferView": 0,
      "componentType": 5126,
      "count": 39667,
      "max": [
        4.4413652420043945,
        2.4872889518737793,
        11.532611846923828
      ],
      "min": [
        -0.098516106605529785,
        -2.9559752941131592,
        7.3295845985412598
      ],
      "type": "VEC3"
    },
    {
      "bufferView": 0,
      "byteOffset": 476004,
      "componentType": 5126,
      "count": 39667,
      "max": [
        0.99943357706069946,
        0.99836629629135132,
        0.99996852874755859
      ],
      "min": [
        -0.99996852874755859,
        -0.99996852874755859,
        -0.9994964599609375
      ],
      "type": "VEC3"
    },
    {
      "bufferView": 1,
      "componentType": 5126,
      "count": 39667,
      "max": [
        1,
        1,
        0.99607843160629272,
        1
      ],
      "min": [
        0,
        0,
        0,
        1
      ],
      "type": "VEC4"
    }
  ],
  "asset": {
    "extras": {
      "author": "Patrick (https://sketchfab.com/patrick-)",
      "license": "CC-BY-4.0 (http://creativecommons.org/licenses/by/4.0/)",
      "source": "https://sketchfab.com/models/566926b3c912465b8ffab7d23636011c",
      "title": "Optical Illusion - Following Eyes"
    },
    "generator": "Sketchfab-3.18.6",
    "version": "2.0"
  },
  "bufferViews": [
    {
      "buffer": 0,
      "byteLength": 952008,
      "byteOffset": 0,
      "byteStride": 12,
      "name": "floatBufferViews",
      "target": 34962
    },
    {
      "buffer": 0,
      "byteLength": 634672,
      "byteOffset": 952008,
      "byteStride": 16,
      "name": "floatBufferViews",
      "target": 34962
    }
  ],
  "buffers": [
    {
      "byteLength": 1586680,
      "uri": "scene.bin"
    }
  ],
  "materials": [
    {
      "doubleSided": false,
      "name": "Scene_-_Root",
      "pbrMetallicRoughness": {
        "baseColorFactor": [
          0.5,
          0.5,
          0.5,
          1
        ],
        "metallicFactor": 0,
        "roughnessFactor": 0.59999999999999998
      }
    }
  ],
  "meshes": [
    {
      "primitives": [
        {
          "attributes": {
            "COLOR_0": 2,
            "NORMAL": 1,
            "POSITION": 0
          },
          "material": 0,
          "mode": 0
        }
      ]
    }
  ],
  "nodes": [
    {
      "children": [
        1
      ],
      "name": "RootNode (gltf orientation matrix)",
      "rotation": [
        -0.70710678118654746,
        -0,
        -0,
        0.70710678118654757
      ]
    },
    {
      "children": [
        2
      ],
      "matrix": [
        -1,
        0,
        0,
        0,
        0,
        0.012046079151332378,
        -0.99992746114730835,
        0,
        0,
        -0.99992746114730835,
        -0.012046079151332378,
        0,
        4.3428359031677246,
        9.1988773345947266,
        9.3103628158569336,
        1
      ],
      "name": "RootNode (model correction matrix)"
    },
    {
      "children": [
        3
      ],
      "name": "Geode"
    },
    {
      "mesh": 0,
      "name": ""
    }
  ],
  "scene": 0,
  "scenes": [
    {
      "name": "OSG_Scene",
      "nodes": [
        0
      ]
    }
  ]
}

