{
  "accessors": [
    {
      "bufferView": 2,
      "componentType": 5126,
      "count": 1029,
      "max": [
        26.944549560546875,
        25.382200241088867,
        15.215840339660645
      ],
      "min": [
        -21.755319595336914,
        -17.617809295654297,
        -24.618600845336914
      ],
      "type": "VEC3"
    },
    {
      "bufferView": 2,
      "byteOffset": 12348,
      "componentType": 5126,
      "count": 1029,
      "max": [
        1,
        1,
        1
      ],
      "min": [
        -1,
        -1,
        -1
      ],
      "type": "VEC3"
    },
    {
      "bufferView": 3,
      "componentType": 5126,
      "count": 1029,
      "max": [
        1,
        1,
        1,
        1
      ],
      "min": [
        -1,
        -1,
        -1,
        -1
      ],
      "type": "VEC4"
    },
    {
      "bufferView": 0,
      "componentType": 5125,
      "count": 1533,
      "max": [
        1028
      ],
      "min": [
        0
      ],
      "type": "SCALAR"
    },
    {
      "bufferView": 2,
      "byteOffset": 24696,
      "componentType": 5126,
      "count": 4,
      "max": [
        45.008899688720703,
        39.180240631103516,
        27.24077033996582
      ],
      "min": [
        -45.008899688720703,
        -39.180240631103516,
        -27.24077033996582
      ],
      "type": "VEC3"
    },
    {
      "bufferView": 2,
      "byteOffset": 24744,
      "componentType": 5126,
      "count": 4,
      "max": [
        0.57259261608123779,
        -0.70441323518753052,
        0.41945192217826843
      ],
      "min": [
        0.57259261608123779,
        -0.70441323518753052,
        0.41945192217826843
      ],
      "type": "VEC3"
    },
    {
      "bufferView": 3,
      "byteOffset": 16464,
      "componentType": 5126,
      "count": 4,
      "max": [
        -0.76148563623428345,
        -0.64652913808822632,
        -0.046257041394710541,
        1
      ],
      "min": [
        -0.761485755443573,
        -0.64652913808822632,
        -0.046257052570581436,
        1
      ],
      "type": "VEC4"
    },
    {
      "bufferView": 1,
      "componentType": 5126,
      "count": 4,
      "max": [
        0.99989998340606689,
        0.99989998340606689
      ],
      "min": [
        9.9999997473787516e-05,
        9.9999997473787516e-05
      ],
      "type": "VEC2"
    },
    {
      "bufferView": 0,
      "byteOffset": 6132,
      "componentType": 5125,
      "count": 6,
      "max": [
        3
      ],
      "min": [
        0
      ],
      "type": "SCALAR"
    }
  ],
  "asset": {
    "extras": {
      "author": "Lau (https://sketchfab.com/QuasiHobo)",
      "license": "CC-BY-4.0 (http://creativecommons.org/licenses/by/4.0/)",
      "source": "https://sketchfab.com/models/e95ef9282c934e50a84f537add9e322c",
      "title": "Optical Illusion Puzzle"
    },
    "generator": "Sketchfab-3.20.7",
    "version": "2.0"
  },
  "bufferViews": [
    {
      "buffer": 0,
      "byteLength": 6156,
      "byteOffset": 0,
      "name": "floatBufferViews",
      "target": 34963
    },
    {
      "buffer": 0,
      "byteLength": 32,
      "byteOffset": 6156,
      "byteStride": 8,
      "name": "floatBufferViews",
      "target": 34962
    },
    {
      "buffer": 0,
      "byteLength": 24792,
      "byteOffset": 6188,
      "byteStride": 12,
      "name": "floatBufferViews",
      "target": 34962
    },
    {
      "buffer": 0,
      "byteLength": 16528,
      "byteOffset": 30980,
      "byteStride": 16,
      "name": "floatBufferViews",
      "target": 34962
    }
  ],
  "buffers": [
    {
      "byteLength": 47508,
      "uri": "scene.bin"
    }
  ],
  "images": [
    {
      "uri": "textures/Material.001_baseColor.png"
    }
  ],
  "materials": [
    {
      "alphaMode": "BLEND",
      "doubleSided": true,
      "emissiveFactor": [
        0,
        0,
        0
      ],
      "name": "Material.001",
      "pbrMetallicRoughness": {
        "baseColorFactor": [
          1,
          1,
          1,
          0
        ],
        "baseColorTexture": {
          "index": 0,
          "texCoord": 0
        },
        "metallicFactor": 0,
        "roughnessFactor": 0.59999999999999998
      }
    },
    {
      "doubleSided": true,
      "emissiveFactor": [
        0,
        0,
        0
      ],
      "name": "level",
      "pbrMetallicRoughness": {
        "baseColorFactor": [
          0.55407909119999998,
          0.52169842710000003,
          0.52169842710000003,
          1
        ],
        "metallicFactor": 0,
        "roughnessFactor": 0.59999999999999998
      }
    }
  ],
  "meshes": [
    {
      "name": "IllusionTest",
      "primitives": [
        {
          "attributes": {
            "NORMAL": 1,
            "POSITION": 0,
            "TANGENT": 2
          },
          "indices": 3,
          "material": 1,
          "mode": 4
        }
      ]
    },
    {
      "name": "Plane",
      "primitives": [
        {
          "attributes": {
            "NORMAL": 5,
            "POSITION": 4,
            "TANGENT": 6,
            "TEXCOORD_0": 7
          },
          "indices": 8,
          "material": 0,
          "mode": 4
        }
      ]
    }
  ],
  "nodes": [
    {
      "children": [
        1
      ],
      "name": "RootNode (gltf orientation matrix)",
      "rotation": [
        -0.70710678118654746,
        -0,
        -0,
        0.70710678118654757
      ]
    },
    {
      "children": [
        2
      ],
      "name": "RootNode (model correction matrix)"
    },
    {
      "children": [
        3,
        5
      ],
      "name": "Root"
    },
    {
      "children": [
        4
      ],
      "name": "IllusionTest"
    },
    {
      "mesh": 0,
      "name": "IllusionTest"
    },
    {
      "children": [
        6
      ],
      "matrix": [
        1,
        0,
        0,
        0,
        0,
        1,
        0,
        0,
        0,
        0,
        1,
        0,
        -35.696970000000007,
        40.292870000000008,
        -33.576630000000002,
        1
      ],
      "name": "Plane"
    },
    {
      "mesh": 1,
      "name": "Plane"
    }
  ],
  "samplers": [
    {
      "magFilter": 9729,
      "minFilter": 9987,
      "wrapS": 10497,
      "wrapT": 10497
    }
  ],
  "scene": 0,
  "scenes": [
    {
      "name": "OSG_Scene",
      "nodes": [
        0
      ]
    }
  ],
  "textures": [
    {
      "sampler": 0,
      "source": 0
    }
  ]
}

